G04 #@! TF.GenerationSoftware,KiCad,Pcbnew,(5.0.2-5-10.14)*
G04 #@! TF.CreationDate,2019-03-08T13:56:55-05:00*
G04 #@! TF.ProjectId,PresSensor,50726573-5365-46e7-936f-722e6b696361,rev?*
G04 #@! TF.SameCoordinates,Original*
G04 #@! TF.FileFunction,Soldermask,Top*
G04 #@! TF.FilePolarity,Negative*
%FSLAX46Y46*%
G04 Gerber Fmt 4.6, Leading zero omitted, Abs format (unit mm)*
G04 Created by KiCad (PCBNEW (5.0.2-5-10.14)) date Friday, March 08, 2019 at 01:56:55 PM*
%MOMM*%
%LPD*%
G01*
G04 APERTURE LIST*
%ADD10C,0.100000*%
G04 APERTURE END LIST*
D10*
G36*
X141276414Y-91689879D02*
X141276416Y-91689880D01*
X141276417Y-91689880D01*
X141467594Y-91769068D01*
X141639651Y-91884033D01*
X141785967Y-92030349D01*
X141900932Y-92202406D01*
X141980121Y-92393586D01*
X142020490Y-92596534D01*
X142020490Y-92803466D01*
X141980121Y-93006414D01*
X141900932Y-93197594D01*
X141785967Y-93369651D01*
X141639651Y-93515967D01*
X141639648Y-93515969D01*
X141467594Y-93630932D01*
X141276417Y-93710120D01*
X141276416Y-93710120D01*
X141276414Y-93710121D01*
X141073466Y-93750490D01*
X140866534Y-93750490D01*
X140663586Y-93710121D01*
X140663584Y-93710120D01*
X140663583Y-93710120D01*
X140472406Y-93630932D01*
X140300352Y-93515969D01*
X140300349Y-93515967D01*
X140154033Y-93369651D01*
X140039068Y-93197594D01*
X139959879Y-93006414D01*
X139919510Y-92803466D01*
X139919510Y-92596534D01*
X139959879Y-92393586D01*
X140039068Y-92202406D01*
X140154033Y-92030349D01*
X140300349Y-91884033D01*
X140472406Y-91769068D01*
X140663583Y-91689880D01*
X140663584Y-91689880D01*
X140663586Y-91689879D01*
X140866534Y-91649510D01*
X141073466Y-91649510D01*
X141276414Y-91689879D01*
X141276414Y-91689879D01*
G37*
G36*
X138736414Y-91689879D02*
X138736416Y-91689880D01*
X138736417Y-91689880D01*
X138927594Y-91769068D01*
X139099651Y-91884033D01*
X139245967Y-92030349D01*
X139360932Y-92202406D01*
X139440121Y-92393586D01*
X139480490Y-92596534D01*
X139480490Y-92803466D01*
X139440121Y-93006414D01*
X139360932Y-93197594D01*
X139245967Y-93369651D01*
X139099651Y-93515967D01*
X139099648Y-93515969D01*
X138927594Y-93630932D01*
X138736417Y-93710120D01*
X138736416Y-93710120D01*
X138736414Y-93710121D01*
X138533466Y-93750490D01*
X138326534Y-93750490D01*
X138123586Y-93710121D01*
X138123584Y-93710120D01*
X138123583Y-93710120D01*
X137932406Y-93630932D01*
X137760352Y-93515969D01*
X137760349Y-93515967D01*
X137614033Y-93369651D01*
X137499068Y-93197594D01*
X137419879Y-93006414D01*
X137379510Y-92803466D01*
X137379510Y-92596534D01*
X137419879Y-92393586D01*
X137499068Y-92202406D01*
X137614033Y-92030349D01*
X137760349Y-91884033D01*
X137932406Y-91769068D01*
X138123583Y-91689880D01*
X138123584Y-91689880D01*
X138123586Y-91689879D01*
X138326534Y-91649510D01*
X138533466Y-91649510D01*
X138736414Y-91689879D01*
X138736414Y-91689879D01*
G37*
G36*
X141276414Y-88489879D02*
X141276416Y-88489880D01*
X141276417Y-88489880D01*
X141467594Y-88569068D01*
X141639651Y-88684033D01*
X141785967Y-88830349D01*
X141900932Y-89002406D01*
X141980121Y-89193586D01*
X142020490Y-89396534D01*
X142020490Y-89603466D01*
X141980121Y-89806414D01*
X141900932Y-89997594D01*
X141785967Y-90169651D01*
X141639651Y-90315967D01*
X141639648Y-90315969D01*
X141467594Y-90430932D01*
X141276417Y-90510120D01*
X141276416Y-90510120D01*
X141276414Y-90510121D01*
X141073466Y-90550490D01*
X140866534Y-90550490D01*
X140663586Y-90510121D01*
X140663584Y-90510120D01*
X140663583Y-90510120D01*
X140472406Y-90430932D01*
X140300352Y-90315969D01*
X140300349Y-90315967D01*
X140154033Y-90169651D01*
X140039068Y-89997594D01*
X139959879Y-89806414D01*
X139919510Y-89603466D01*
X139919510Y-89396534D01*
X139959879Y-89193586D01*
X140039068Y-89002406D01*
X140154033Y-88830349D01*
X140300349Y-88684033D01*
X140472406Y-88569068D01*
X140663583Y-88489880D01*
X140663584Y-88489880D01*
X140663586Y-88489879D01*
X140866534Y-88449510D01*
X141073466Y-88449510D01*
X141276414Y-88489879D01*
X141276414Y-88489879D01*
G37*
G36*
X139480490Y-90510490D02*
X137379510Y-90510490D01*
X137379510Y-88409510D01*
X139480490Y-88409510D01*
X139480490Y-90510490D01*
X139480490Y-90510490D01*
G37*
G36*
X137539499Y-86978445D02*
X137576993Y-86989819D01*
X137611557Y-87008294D01*
X137641847Y-87033153D01*
X137666706Y-87063443D01*
X137685181Y-87098007D01*
X137696555Y-87135501D01*
X137701000Y-87180638D01*
X137701000Y-87819362D01*
X137696555Y-87864499D01*
X137685181Y-87901993D01*
X137666706Y-87936557D01*
X137641847Y-87966847D01*
X137611557Y-87991706D01*
X137576993Y-88010181D01*
X137539499Y-88021555D01*
X137494362Y-88026000D01*
X136755638Y-88026000D01*
X136710501Y-88021555D01*
X136673007Y-88010181D01*
X136638443Y-87991706D01*
X136608153Y-87966847D01*
X136583294Y-87936557D01*
X136564819Y-87901993D01*
X136553445Y-87864499D01*
X136549000Y-87819362D01*
X136549000Y-87180638D01*
X136553445Y-87135501D01*
X136564819Y-87098007D01*
X136583294Y-87063443D01*
X136608153Y-87033153D01*
X136638443Y-87008294D01*
X136673007Y-86989819D01*
X136710501Y-86978445D01*
X136755638Y-86974000D01*
X137494362Y-86974000D01*
X137539499Y-86978445D01*
X137539499Y-86978445D01*
G37*
G36*
X135789499Y-86978445D02*
X135826993Y-86989819D01*
X135861557Y-87008294D01*
X135891847Y-87033153D01*
X135916706Y-87063443D01*
X135935181Y-87098007D01*
X135946555Y-87135501D01*
X135951000Y-87180638D01*
X135951000Y-87819362D01*
X135946555Y-87864499D01*
X135935181Y-87901993D01*
X135916706Y-87936557D01*
X135891847Y-87966847D01*
X135861557Y-87991706D01*
X135826993Y-88010181D01*
X135789499Y-88021555D01*
X135744362Y-88026000D01*
X135005638Y-88026000D01*
X134960501Y-88021555D01*
X134923007Y-88010181D01*
X134888443Y-87991706D01*
X134858153Y-87966847D01*
X134833294Y-87936557D01*
X134814819Y-87901993D01*
X134803445Y-87864499D01*
X134799000Y-87819362D01*
X134799000Y-87180638D01*
X134803445Y-87135501D01*
X134814819Y-87098007D01*
X134833294Y-87063443D01*
X134858153Y-87033153D01*
X134888443Y-87008294D01*
X134923007Y-86989819D01*
X134960501Y-86978445D01*
X135005638Y-86974000D01*
X135744362Y-86974000D01*
X135789499Y-86978445D01*
X135789499Y-86978445D01*
G37*
G36*
X141356000Y-87511000D02*
X139604000Y-87511000D01*
X139604000Y-86779000D01*
X141356000Y-86779000D01*
X141356000Y-87511000D01*
X141356000Y-87511000D01*
G37*
G36*
X141131000Y-86476000D02*
X139829000Y-86476000D01*
X139829000Y-85174000D01*
X141131000Y-85174000D01*
X141131000Y-86476000D01*
X141131000Y-86476000D01*
G37*
G36*
X135789499Y-85378445D02*
X135826993Y-85389819D01*
X135861557Y-85408294D01*
X135891847Y-85433153D01*
X135916706Y-85463443D01*
X135935181Y-85498007D01*
X135946555Y-85535501D01*
X135951000Y-85580638D01*
X135951000Y-86219362D01*
X135946555Y-86264499D01*
X135935181Y-86301993D01*
X135916706Y-86336557D01*
X135891847Y-86366847D01*
X135861557Y-86391706D01*
X135826993Y-86410181D01*
X135789499Y-86421555D01*
X135744362Y-86426000D01*
X135005638Y-86426000D01*
X134960501Y-86421555D01*
X134923007Y-86410181D01*
X134888443Y-86391706D01*
X134858153Y-86366847D01*
X134833294Y-86336557D01*
X134814819Y-86301993D01*
X134803445Y-86264499D01*
X134799000Y-86219362D01*
X134799000Y-85580638D01*
X134803445Y-85535501D01*
X134814819Y-85498007D01*
X134833294Y-85463443D01*
X134858153Y-85433153D01*
X134888443Y-85408294D01*
X134923007Y-85389819D01*
X134960501Y-85378445D01*
X135005638Y-85374000D01*
X135744362Y-85374000D01*
X135789499Y-85378445D01*
X135789499Y-85378445D01*
G37*
G36*
X137539499Y-85378445D02*
X137576993Y-85389819D01*
X137611557Y-85408294D01*
X137641847Y-85433153D01*
X137666706Y-85463443D01*
X137685181Y-85498007D01*
X137696555Y-85535501D01*
X137701000Y-85580638D01*
X137701000Y-86219362D01*
X137696555Y-86264499D01*
X137685181Y-86301993D01*
X137666706Y-86336557D01*
X137641847Y-86366847D01*
X137611557Y-86391706D01*
X137576993Y-86410181D01*
X137539499Y-86421555D01*
X137494362Y-86426000D01*
X136755638Y-86426000D01*
X136710501Y-86421555D01*
X136673007Y-86410181D01*
X136638443Y-86391706D01*
X136608153Y-86366847D01*
X136583294Y-86336557D01*
X136564819Y-86301993D01*
X136553445Y-86264499D01*
X136549000Y-86219362D01*
X136549000Y-85580638D01*
X136553445Y-85535501D01*
X136564819Y-85498007D01*
X136583294Y-85463443D01*
X136608153Y-85433153D01*
X136638443Y-85408294D01*
X136673007Y-85389819D01*
X136710501Y-85378445D01*
X136755638Y-85374000D01*
X137494362Y-85374000D01*
X137539499Y-85378445D01*
X137539499Y-85378445D01*
G37*
G36*
X139526000Y-86401000D02*
X138794000Y-86401000D01*
X138794000Y-85249000D01*
X139526000Y-85249000D01*
X139526000Y-86401000D01*
X139526000Y-86401000D01*
G37*
G36*
X142166000Y-86401000D02*
X141434000Y-86401000D01*
X141434000Y-85249000D01*
X142166000Y-85249000D01*
X142166000Y-86401000D01*
X142166000Y-86401000D01*
G37*
G36*
X141356000Y-84871000D02*
X139604000Y-84871000D01*
X139604000Y-84139000D01*
X141356000Y-84139000D01*
X141356000Y-84871000D01*
X141356000Y-84871000D01*
G37*
G36*
X135789499Y-83778445D02*
X135826993Y-83789819D01*
X135861557Y-83808294D01*
X135891847Y-83833153D01*
X135916706Y-83863443D01*
X135935181Y-83898007D01*
X135946555Y-83935501D01*
X135951000Y-83980638D01*
X135951000Y-84619362D01*
X135946555Y-84664499D01*
X135935181Y-84701993D01*
X135916706Y-84736557D01*
X135891847Y-84766847D01*
X135861557Y-84791706D01*
X135826993Y-84810181D01*
X135789499Y-84821555D01*
X135744362Y-84826000D01*
X135005638Y-84826000D01*
X134960501Y-84821555D01*
X134923007Y-84810181D01*
X134888443Y-84791706D01*
X134858153Y-84766847D01*
X134833294Y-84736557D01*
X134814819Y-84701993D01*
X134803445Y-84664499D01*
X134799000Y-84619362D01*
X134799000Y-83980638D01*
X134803445Y-83935501D01*
X134814819Y-83898007D01*
X134833294Y-83863443D01*
X134858153Y-83833153D01*
X134888443Y-83808294D01*
X134923007Y-83789819D01*
X134960501Y-83778445D01*
X135005638Y-83774000D01*
X135744362Y-83774000D01*
X135789499Y-83778445D01*
X135789499Y-83778445D01*
G37*
G36*
X137539499Y-83778445D02*
X137576993Y-83789819D01*
X137611557Y-83808294D01*
X137641847Y-83833153D01*
X137666706Y-83863443D01*
X137685181Y-83898007D01*
X137696555Y-83935501D01*
X137701000Y-83980638D01*
X137701000Y-84619362D01*
X137696555Y-84664499D01*
X137685181Y-84701993D01*
X137666706Y-84736557D01*
X137641847Y-84766847D01*
X137611557Y-84791706D01*
X137576993Y-84810181D01*
X137539499Y-84821555D01*
X137494362Y-84826000D01*
X136755638Y-84826000D01*
X136710501Y-84821555D01*
X136673007Y-84810181D01*
X136638443Y-84791706D01*
X136608153Y-84766847D01*
X136583294Y-84736557D01*
X136564819Y-84701993D01*
X136553445Y-84664499D01*
X136549000Y-84619362D01*
X136549000Y-83980638D01*
X136553445Y-83935501D01*
X136564819Y-83898007D01*
X136583294Y-83863443D01*
X136608153Y-83833153D01*
X136638443Y-83808294D01*
X136673007Y-83789819D01*
X136710501Y-83778445D01*
X136755638Y-83774000D01*
X137494362Y-83774000D01*
X137539499Y-83778445D01*
X137539499Y-83778445D01*
G37*
G36*
X138506414Y-81029879D02*
X138506416Y-81029880D01*
X138506417Y-81029880D01*
X138697594Y-81109068D01*
X138869651Y-81224033D01*
X139015967Y-81370349D01*
X139130932Y-81542406D01*
X139210121Y-81733586D01*
X139250490Y-81936534D01*
X139250490Y-82143466D01*
X139210121Y-82346414D01*
X139130932Y-82537594D01*
X139015967Y-82709651D01*
X138869651Y-82855967D01*
X138869648Y-82855969D01*
X138697594Y-82970932D01*
X138506417Y-83050120D01*
X138506416Y-83050120D01*
X138506414Y-83050121D01*
X138303466Y-83090490D01*
X138096534Y-83090490D01*
X137893586Y-83050121D01*
X137893584Y-83050120D01*
X137893583Y-83050120D01*
X137702406Y-82970932D01*
X137530352Y-82855969D01*
X137530349Y-82855967D01*
X137384033Y-82709651D01*
X137269068Y-82537594D01*
X137189879Y-82346414D01*
X137149510Y-82143466D01*
X137149510Y-81936534D01*
X137189879Y-81733586D01*
X137269068Y-81542406D01*
X137384033Y-81370349D01*
X137530349Y-81224033D01*
X137702406Y-81109068D01*
X137893583Y-81029880D01*
X137893584Y-81029880D01*
X137893586Y-81029879D01*
X138096534Y-80989510D01*
X138303466Y-80989510D01*
X138506414Y-81029879D01*
X138506414Y-81029879D01*
G37*
G36*
X141806414Y-81029879D02*
X141806416Y-81029880D01*
X141806417Y-81029880D01*
X141997594Y-81109068D01*
X142169651Y-81224033D01*
X142315967Y-81370349D01*
X142430932Y-81542406D01*
X142510121Y-81733586D01*
X142550490Y-81936534D01*
X142550490Y-82143466D01*
X142510121Y-82346414D01*
X142430932Y-82537594D01*
X142315967Y-82709651D01*
X142169651Y-82855967D01*
X142169648Y-82855969D01*
X141997594Y-82970932D01*
X141806417Y-83050120D01*
X141806416Y-83050120D01*
X141806414Y-83050121D01*
X141603466Y-83090490D01*
X141396534Y-83090490D01*
X141193586Y-83050121D01*
X141193584Y-83050120D01*
X141193583Y-83050120D01*
X141002406Y-82970932D01*
X140830352Y-82855969D01*
X140830349Y-82855967D01*
X140684033Y-82709651D01*
X140569068Y-82537594D01*
X140489879Y-82346414D01*
X140449510Y-82143466D01*
X140449510Y-81936534D01*
X140489879Y-81733586D01*
X140569068Y-81542406D01*
X140684033Y-81370349D01*
X140830349Y-81224033D01*
X141002406Y-81109068D01*
X141193583Y-81029880D01*
X141193584Y-81029880D01*
X141193586Y-81029879D01*
X141396534Y-80989510D01*
X141603466Y-80989510D01*
X141806414Y-81029879D01*
X141806414Y-81029879D01*
G37*
G36*
X139350490Y-80550490D02*
X137249510Y-80550490D01*
X137249510Y-78449510D01*
X139350490Y-78449510D01*
X139350490Y-80550490D01*
X139350490Y-80550490D01*
G37*
G36*
X141806414Y-78489879D02*
X141806416Y-78489880D01*
X141806417Y-78489880D01*
X141997594Y-78569068D01*
X142169651Y-78684033D01*
X142315967Y-78830349D01*
X142430932Y-79002406D01*
X142510121Y-79193586D01*
X142550490Y-79396534D01*
X142550490Y-79603466D01*
X142510121Y-79806414D01*
X142430932Y-79997594D01*
X142315967Y-80169651D01*
X142169651Y-80315967D01*
X142169648Y-80315969D01*
X141997594Y-80430932D01*
X141806417Y-80510120D01*
X141806416Y-80510120D01*
X141806414Y-80510121D01*
X141603466Y-80550490D01*
X141396534Y-80550490D01*
X141193586Y-80510121D01*
X141193584Y-80510120D01*
X141193583Y-80510120D01*
X141002406Y-80430932D01*
X140830352Y-80315969D01*
X140830349Y-80315967D01*
X140684033Y-80169651D01*
X140569068Y-79997594D01*
X140489879Y-79806414D01*
X140449510Y-79603466D01*
X140449510Y-79396534D01*
X140489879Y-79193586D01*
X140569068Y-79002406D01*
X140684033Y-78830349D01*
X140830349Y-78684033D01*
X141002406Y-78569068D01*
X141193583Y-78489880D01*
X141193584Y-78489880D01*
X141193586Y-78489879D01*
X141396534Y-78449510D01*
X141603466Y-78449510D01*
X141806414Y-78489879D01*
X141806414Y-78489879D01*
G37*
M02*
